{"title":"Recoil.2011.720p.BRRip.x264.Feel-Free","uid":7056646,"size":2402830949,"categoryP":"video","categoryS":"hd___movies","magnet":"?xt=urn:btih:5c6602d3412451c9386538dd7788d87743e02e77&amp;dn=Recoil.2011.720p.BRRip.x264.Feel-Free&amp;tr=udp%3A%2F%2Ftracker.openbittorrent.com%3A80&amp;tr=udp%3A%2F%2Fopen.demonii.com%3A1337&amp;tr=udp%3A%2F%2Ftracker.coppersurfer.tk%3A6969&amp;tr=udp%3A%2F%2Fexodus.desync.com%3A6969","seeders":0,"leechers":1,"uploader":null,"files":11,"time":1330152930,"description":"Genre:Action\nLanguage:English\nIMDb:http://www.imdb.com/title/tt1839591/\nSource:BluRay.720p.DTS.x264-CHD Thanks!\nEncoder:Tony\n\nFormat : MPEG-4\nFormat profile : Base Media\nCodec ID : isom\nFile size : 2.23 GiB\nDuration : 1h 33mn\nOverall bit rate mode : Variable\nOverall bit rate : 3 401 Kbps\n\nVideo\nID : 1\nFormat : AVC\nFormat/Info : Advanced Video Codec\nFormat profile : &lt;a class=&quot;__cf_email__&quot; href=&quot;/cdn-cgi/l/email-protection&quot; data-cfemail=&quot;b1f9d8d6d9f1fd849f80&quot;&gt;[email&amp;#160;protected]&lt;/a&gt;&lt;script cf-hash='f9e31' type=&quot;text/javascript&quot;&gt;\n/* &lt;![CDATA[ */!function(){try{var t=&quot;currentScript&quot;in document?document.currentScript:function(){for(var t=document.getElementsByTagName(&quot;script&quot;),e=t.length;e--;)if(t[e].getAttribute(&quot;cf-hash&quot;))return t[e]}();if(t&amp;&amp;t.previousSibling){var e,r,n,i,c=t.previousSibling,a=c.getAttribute(&quot;data-cfemail&quot;);if(a){for(e=&quot;&quot;,r=parseInt(a.substr(0,2),16),n=2;a.length-n;n+=2)i=parseInt(a.substr(n,2),16)^r,e+=String.fromCharCode(i);e=document.createTextNode(e),c.parentNode.replaceChild(e,c)}}}catch(u){}}();/* ]]&gt; */&lt;/script&gt;\nFormat settings, CABAC : Yes\nFormat settings, ReFrames : 5 frames\nCodec ID : avc1\nCodec ID/Info : Advanced Video Coding\nDuration : 1h 33mn\nBit rate : 3 000 Kbps\nMaximum bit rate : 18.6 Mbps\nWidth : 1 280 pixels\nHeight : 720 pixels\nDisplay aspect ratio : 16:9\nFrame rate mode : Constant\nFrame rate : 23.976 fps\nColor space : YUV\nChroma subsampling : 4:2:0\nBit depth : 8 bits\nScan type : Progressive\nBits/(Pixel*Frame) : 0.136\nStream size : 1.94 GiB (87%)\nWriting library : x264\n\nAudio\nID : 2\nFormat : AAC\nFormat/Info : Advanced Audio Codec\nFormat profile : LC\nCodec ID : 40\nDuration : 1h 33mn\nBit rate mode : Variable\nBit rate : 442 Kbps\nMaximum bit rate : 512 Kbps\nChannel(s) : 6 channels\nChannel positions : Front: L C R, Side: L R, LFE\nSampling rate : 48.0 KHz\nCompression mode : Lossy\nStream size : 297 MiB (13%)\n\n\nPlot:\nA cop turns vigilante after his family is murdered, exacting vengeance on the killers - and then on all criminals who have slipped through the system.","torrent":{"xt":"urn:btih:5c6602d3412451c9386538dd7788d87743e02e77","amp;dn":"Recoil.2011.720p.BRRip.x264.Feel-Free","amp;tr":["udp%3A%2F%2Ftracker.openbittorrent.com%3A80","udp%3A%2F%2Fopen.demonii.com%3A1337","udp%3A%2F%2Ftracker.coppersurfer.tk%3A6969","udp%3A%2F%2Fexodus.desync.com%3A6969"],"infoHash":"5c6602d3412451c9386538dd7788d87743e02e77","infoHashBuffer":{"type":"Buffer","data":[92,102,2,211,65,36,81,201,56,101,56,221,119,136,216,119,67,224,46,119]},"announce":[],"urlList":[]}}